<svg width="800" height="420" viewBox="0 0 800 420" fill="none" xmlns="http://www.w3.org/2000/svg">
<g clip-path="url(#clip0_31_7)">
<rect width="800" height="420" fill="white"/>
<rect width="1000" height="1000" fill="url(#paint0_linear_31_7)"/>
<path d="M200 182.359C200 176.781 200.737 171.657 202.211 166.986C203.7 162.3 205.91 157.972 208.843 154H216.458C215.327 155.473 214.27 157.28 213.287 159.422C212.305 161.549 211.449 163.884 210.719 166.428C210.004 168.957 209.439 171.582 209.022 174.304C208.62 177.027 208.419 179.712 208.419 182.359C208.419 185.885 208.769 189.455 209.469 193.069C210.183 196.684 211.143 200.038 212.349 203.132C213.57 206.211 214.94 208.733 216.458 210.696H208.843C205.91 206.725 203.7 202.403 202.211 197.733C200.737 193.047 200 187.923 200 182.359Z" fill="white"/>
<path d="M238.695 205.207V159.511H256.203C259.508 159.511 262.254 160.032 264.443 161.073C266.646 162.099 268.291 163.505 269.378 165.29C270.48 167.075 271.031 169.098 271.031 171.359C271.031 173.219 270.673 174.81 269.959 176.134C269.244 177.443 268.284 178.507 267.078 179.325C265.872 180.143 264.525 180.73 263.036 181.087V181.534C264.659 181.623 266.214 182.121 267.703 183.029C269.207 183.921 270.435 185.186 271.388 186.822C272.341 188.458 272.817 190.436 272.817 192.757C272.817 195.122 272.244 197.249 271.098 199.138C269.951 201.013 268.224 202.493 265.917 203.579C263.609 204.664 260.706 205.207 257.207 205.207H238.695ZM246.98 198.291H255.89C258.897 198.291 261.063 197.718 262.388 196.572C263.728 195.412 264.398 193.925 264.398 192.11C264.398 190.756 264.063 189.537 263.393 188.451C262.723 187.35 261.771 186.487 260.535 185.862C259.299 185.223 257.825 184.903 256.113 184.903H246.98V198.291ZM246.98 178.945H255.175C256.605 178.945 257.892 178.685 259.039 178.165C260.185 177.629 261.086 176.878 261.741 175.911C262.411 174.929 262.746 173.769 262.746 172.43C262.746 170.66 262.12 169.202 260.87 168.057C259.634 166.912 257.796 166.339 255.354 166.339H246.98V178.945Z" fill="white"/>
<path d="M301.53 190.793V170.935H309.614V205.207H301.775V199.116H301.418C300.644 201.035 299.371 202.604 297.599 203.824C295.843 205.044 293.676 205.654 291.101 205.654C288.853 205.654 286.865 205.155 285.138 204.159C283.426 203.147 282.086 201.682 281.119 199.763C280.151 197.829 279.667 195.494 279.667 192.757V170.935H287.751V191.507C287.751 193.679 288.347 195.405 289.538 196.684C290.729 197.963 292.292 198.603 294.227 198.603C295.418 198.603 296.572 198.313 297.689 197.733C298.805 197.153 299.721 196.29 300.435 195.144C301.165 193.984 301.53 192.534 301.53 190.793Z" fill="white"/>
<path d="M332.844 218.773C329.941 218.773 327.447 218.379 325.363 217.591C323.279 216.817 321.604 215.776 320.338 214.467C319.073 213.158 318.195 211.708 317.703 210.116L324.983 208.353C325.311 209.023 325.787 209.685 326.412 210.339C327.038 211.009 327.879 211.559 328.936 211.99C330.008 212.437 331.355 212.66 332.978 212.66C335.271 212.66 337.169 212.102 338.672 210.986C340.176 209.886 340.928 208.071 340.928 205.542V199.049H340.526C340.109 199.882 339.499 200.737 338.695 201.615C337.906 202.493 336.856 203.229 335.546 203.824C334.251 204.419 332.621 204.717 330.655 204.717C328.02 204.717 325.631 204.099 323.487 202.865C321.358 201.615 319.661 199.756 318.395 197.286C317.145 194.802 316.52 191.693 316.52 187.96C316.52 184.196 317.145 181.021 318.395 178.432C319.661 175.829 321.366 173.858 323.509 172.519C325.653 171.166 328.043 170.489 330.678 170.489C332.688 170.489 334.34 170.831 335.635 171.515C336.945 172.185 337.988 172.995 338.762 173.947C339.536 174.885 340.124 175.77 340.526 176.603H340.973V170.935H348.945V205.765C348.945 208.696 348.245 211.12 346.846 213.039C345.446 214.958 343.533 216.393 341.107 217.345C338.68 218.297 335.926 218.773 332.844 218.773ZM332.911 198.38C334.623 198.38 336.082 197.963 337.288 197.13C338.494 196.297 339.409 195.1 340.035 193.538C340.66 191.976 340.973 190.102 340.973 187.915C340.973 185.758 340.66 183.869 340.035 182.248C339.424 180.626 338.516 179.369 337.31 178.477C336.119 177.57 334.653 177.116 332.911 177.116C331.109 177.116 329.606 177.584 328.4 178.522C327.194 179.459 326.286 180.745 325.676 182.382C325.065 184.003 324.76 185.848 324.76 187.915C324.76 190.013 325.065 191.85 325.676 193.426C326.301 194.988 327.216 196.208 328.422 197.086C329.643 197.948 331.139 198.38 332.911 198.38Z" fill="white"/>
<path d="M387.254 182.359C387.254 187.923 386.51 193.047 385.021 197.733C383.547 202.403 381.344 206.725 378.411 210.696H370.796C371.942 209.224 372.999 207.424 373.967 205.297C374.95 203.17 375.798 200.834 376.513 198.291C377.242 195.747 377.808 193.114 378.21 190.392C378.627 187.67 378.835 184.992 378.835 182.359C378.835 178.834 378.478 175.264 377.764 171.649C377.064 168.035 376.104 164.68 374.883 161.586C373.677 158.492 372.315 155.964 370.796 154H378.411C381.344 157.972 383.547 162.3 385.021 166.986C386.51 171.657 387.254 176.781 387.254 182.359Z" fill="white"/>
<path d="M425.581 204.003L420.98 199.451L438.086 182.359L420.98 165.29L425.581 160.716L447.242 182.359L425.581 204.003ZM401.284 191.374V184.903H440.386L433.866 191.374H401.284ZM401.284 179.816V173.345H433.866L440.386 179.816H401.284Z" fill="white"/>
<path d="M455.923 166.45V159.511H492.413V166.45H478.277V205.207H470.059V166.45H455.923Z" fill="white"/>
<path d="M499.09 205.207V170.935H507.174V205.207H499.09ZM503.154 166.071C501.874 166.071 500.772 165.647 499.849 164.799C498.926 163.937 498.465 162.903 498.465 161.698C498.465 160.478 498.926 159.444 499.849 158.596C500.772 157.734 501.874 157.302 503.154 157.302C504.45 157.302 505.551 157.734 506.459 158.596C507.382 159.444 507.844 160.478 507.844 161.698C507.844 162.903 507.382 163.937 506.459 164.799C505.551 165.647 504.45 166.071 503.154 166.071Z" fill="white"/>
<path d="M515.487 218.059V170.935H523.437V176.603H523.906C524.323 175.77 524.911 174.885 525.67 173.947C526.429 172.995 527.456 172.185 528.752 171.515C530.047 170.831 531.699 170.489 533.709 170.489C536.359 170.489 538.749 171.166 540.878 172.519C543.021 173.858 544.719 175.844 545.969 178.477C547.235 181.095 547.867 184.308 547.867 188.116C547.867 191.879 547.25 195.077 546.014 197.71C544.778 200.343 543.096 202.351 540.967 203.735C538.838 205.118 536.426 205.81 533.732 205.81C531.766 205.81 530.136 205.483 528.841 204.828C527.546 204.174 526.504 203.385 525.715 202.463C524.94 201.526 524.337 200.641 523.906 199.808H523.571V218.059H515.487ZM523.414 188.071C523.414 190.288 523.727 192.229 524.352 193.895C524.993 195.561 525.908 196.863 527.099 197.8C528.305 198.722 529.764 199.183 531.476 199.183C533.263 199.183 534.759 198.707 535.965 197.755C537.171 196.788 538.079 195.472 538.689 193.806C539.314 192.125 539.627 190.213 539.627 188.071C539.627 185.944 539.322 184.055 538.711 182.404C538.101 180.753 537.193 179.459 535.987 178.522C534.781 177.584 533.277 177.116 531.476 177.116C529.749 177.116 528.283 177.57 527.077 178.477C525.871 179.384 524.955 180.656 524.33 182.292C523.72 183.929 523.414 185.855 523.414 188.071Z" fill="white"/>
<path d="M581.9 179.994L574.531 180.797C574.323 180.054 573.958 179.355 573.437 178.7C572.931 178.046 572.246 177.517 571.382 177.116C570.519 176.714 569.462 176.513 568.211 176.513C566.529 176.513 565.115 176.878 563.968 177.607C562.837 178.336 562.279 179.28 562.293 180.44C562.279 181.437 562.643 182.248 563.388 182.873C564.147 183.497 565.397 184.01 567.139 184.412L572.99 185.662C576.236 186.361 578.647 187.469 580.226 188.986C581.819 190.503 582.622 192.489 582.637 194.944C582.622 197.101 581.99 199.005 580.739 200.656C579.504 202.292 577.784 203.571 575.581 204.493C573.377 205.416 570.846 205.877 567.988 205.877C563.79 205.877 560.41 204.999 557.849 203.244C555.289 201.474 553.763 199.012 553.272 195.858L561.155 195.1C561.512 196.647 562.271 197.815 563.432 198.603C564.594 199.391 566.105 199.785 567.966 199.785C569.886 199.785 571.427 199.391 572.588 198.603C573.764 197.815 574.352 196.84 574.352 195.68C574.352 194.698 573.973 193.887 573.214 193.248C572.469 192.608 571.308 192.117 569.73 191.775L563.879 190.548C560.589 189.864 558.155 188.711 556.577 187.09C554.999 185.453 554.217 183.386 554.232 180.887C554.217 178.774 554.79 176.945 555.951 175.398C557.127 173.836 558.758 172.631 560.842 171.783C562.941 170.92 565.36 170.489 568.1 170.489C572.119 170.489 575.283 171.344 577.59 173.055C579.913 174.766 581.35 177.079 581.9 179.994Z" fill="white"/>
<path d="M598.794 198.96L598.504 201.414C598.295 203.289 597.923 205.193 597.387 207.126C596.866 209.075 596.315 210.867 595.735 212.504C595.154 214.14 594.685 215.427 594.328 216.364H588.879C589.087 215.456 589.37 214.222 589.728 212.66C590.1 211.098 590.457 209.343 590.799 207.394C591.142 205.445 591.373 203.467 591.492 201.459L591.648 198.96H598.794ZM595.087 181.244C593.732 181.244 592.571 180.768 591.603 179.816C590.636 178.849 590.159 177.689 590.174 176.335C590.159 174.996 590.636 173.851 591.603 172.899C592.571 171.932 593.732 171.448 595.087 171.448C596.397 171.448 597.536 171.932 598.504 172.899C599.486 173.851 599.985 174.996 600 176.335C599.985 177.227 599.747 178.046 599.285 178.789C598.839 179.533 598.243 180.128 597.499 180.574C596.769 181.021 595.965 181.244 595.087 181.244Z" fill="white"/>
<path d="M289.726 248.405V258.713H287.091V235.865H289.726V244.254H289.949C290.351 243.369 290.954 242.667 291.758 242.146C292.57 241.618 293.649 241.354 294.996 241.354C296.165 241.354 297.189 241.588 298.067 242.057C298.945 242.518 299.626 243.228 300.11 244.188C300.602 245.14 300.847 246.352 300.847 247.824V258.713H298.212V248.003C298.212 246.642 297.859 245.59 297.151 244.846C296.452 244.095 295.48 243.719 294.237 243.719C293.374 243.719 292.599 243.901 291.915 244.266C291.237 244.63 290.701 245.162 290.307 245.861C289.92 246.56 289.726 247.408 289.726 248.405Z" fill="white"/>
<path d="M313.127 241.577V243.808H304.239V241.577H313.127ZM306.829 237.471H309.464V253.804C309.464 254.548 309.572 255.106 309.788 255.478C310.011 255.842 310.294 256.088 310.637 256.214C310.987 256.333 311.355 256.393 311.742 256.393C312.032 256.393 312.271 256.378 312.457 256.348C312.643 256.311 312.792 256.281 312.903 256.259L313.439 258.624C313.261 258.691 313.011 258.758 312.691 258.825C312.371 258.899 311.965 258.936 311.474 258.936C310.73 258.936 310 258.776 309.286 258.456C308.579 258.137 307.99 257.649 307.521 256.995C307.06 256.34 306.829 255.515 306.829 254.518V237.471Z" fill="white"/>
<path d="M324.549 241.577V243.808H315.661V241.577H324.549ZM318.252 237.471H320.887V253.804C320.887 254.548 320.995 255.106 321.211 255.478C321.434 255.842 321.717 256.088 322.059 256.214C322.409 256.333 322.778 256.393 323.165 256.393C323.455 256.393 323.693 256.378 323.879 256.348C324.065 256.311 324.214 256.281 324.326 256.259L324.862 258.624C324.683 258.691 324.434 258.758 324.114 258.825C323.794 258.899 323.388 258.936 322.897 258.936C322.152 258.936 321.423 258.776 320.708 258.456C320.001 258.137 319.413 257.649 318.944 256.995C318.482 256.34 318.252 255.515 318.252 254.518V237.471Z" fill="white"/>
<path d="M328.513 265.139V241.577H331.059V244.299H331.371C331.565 244.002 331.833 243.622 332.175 243.161C332.525 242.693 333.024 242.276 333.672 241.912C334.327 241.54 335.212 241.354 336.329 241.354C337.773 241.354 339.046 241.715 340.148 242.436C341.249 243.157 342.109 244.18 342.727 245.504C343.345 246.828 343.654 248.39 343.654 250.19C343.654 252.004 343.345 253.577 342.727 254.909C342.109 256.233 341.253 257.259 340.159 257.988C339.065 258.709 337.803 259.07 336.374 259.07C335.272 259.07 334.39 258.888 333.727 258.523C333.065 258.151 332.555 257.731 332.198 257.263C331.84 256.787 331.565 256.393 331.371 256.08H331.148V265.139H328.513ZM331.103 250.145C331.103 251.439 331.293 252.581 331.673 253.57C332.053 254.552 332.607 255.322 333.337 255.879C334.066 256.43 334.959 256.705 336.016 256.705C337.118 256.705 338.037 256.415 338.774 255.835C339.519 255.247 340.077 254.459 340.449 253.47C340.829 252.473 341.019 251.365 341.019 250.145C341.019 248.94 340.833 247.854 340.46 246.887C340.096 245.913 339.541 245.143 338.797 244.578C338.06 244.005 337.133 243.719 336.016 243.719C334.944 243.719 334.044 243.99 333.314 244.533C332.585 245.069 332.034 245.82 331.662 246.787C331.29 247.746 331.103 248.866 331.103 250.145Z" fill="white"/>
<path d="M359.822 245.415L357.454 246.084C357.306 245.69 357.086 245.307 356.796 244.935C356.513 244.556 356.126 244.243 355.634 243.998C355.143 243.752 354.514 243.63 353.747 243.63C352.698 243.63 351.823 243.871 351.124 244.355C350.431 244.831 350.085 245.437 350.085 246.173C350.085 246.828 350.323 247.345 350.8 247.724C351.276 248.103 352.021 248.419 353.033 248.672L355.579 249.297C357.112 249.669 358.255 250.238 359.007 251.004C359.758 251.763 360.134 252.741 360.134 253.938C360.134 254.92 359.851 255.798 359.286 256.571C358.727 257.345 357.946 257.954 356.941 258.401C355.936 258.847 354.767 259.07 353.435 259.07C351.686 259.07 350.238 258.691 349.091 257.932C347.945 257.173 347.219 256.065 346.914 254.608L349.415 253.983C349.653 254.905 350.104 255.597 350.766 256.058C351.436 256.519 352.311 256.75 353.39 256.75C354.618 256.75 355.594 256.489 356.316 255.969C357.045 255.441 357.41 254.808 357.41 254.072C357.41 253.477 357.201 252.979 356.785 252.577C356.368 252.168 355.728 251.863 354.864 251.662L352.006 250.993C350.435 250.621 349.281 250.045 348.544 249.264C347.815 248.475 347.45 247.49 347.45 246.307C347.45 245.34 347.722 244.485 348.265 243.741C348.816 242.998 349.564 242.414 350.509 241.99C351.462 241.566 352.542 241.354 353.747 241.354C355.445 241.354 356.777 241.726 357.745 242.469C358.72 243.213 359.412 244.195 359.822 245.415Z" fill="white"/>
<path d="M366.021 258.892C365.471 258.892 364.998 258.694 364.603 258.3C364.209 257.906 364.012 257.434 364.012 256.883C364.012 256.333 364.209 255.861 364.603 255.467C364.998 255.072 365.471 254.875 366.021 254.875C366.572 254.875 367.045 255.072 367.439 255.467C367.834 255.861 368.031 256.333 368.031 256.883C368.031 257.248 367.938 257.583 367.752 257.887C367.573 258.192 367.331 258.438 367.026 258.624C366.729 258.802 366.394 258.892 366.021 258.892ZM366.021 246.173C365.471 246.173 364.998 245.976 364.603 245.582C364.209 245.188 364.012 244.716 364.012 244.165C364.012 243.615 364.209 243.143 364.603 242.748C364.998 242.354 365.471 242.157 366.021 242.157C366.572 242.157 367.045 242.354 367.439 242.748C367.834 243.143 368.031 243.615 368.031 244.165C368.031 244.53 367.938 244.864 367.752 245.169C367.573 245.474 367.331 245.72 367.026 245.906C366.729 246.084 366.394 246.173 366.021 246.173Z" fill="white"/>
<path d="M380.844 234.794L373.474 262.149H371.063L378.432 234.794H380.844Z" fill="white"/>
<path d="M392.051 234.794L384.682 262.149H382.27L389.64 234.794H392.051Z" fill="white"/>
<path d="M395.532 258.713V235.865H398.167V244.299H398.391C398.584 244.002 398.852 243.622 399.195 243.161C399.545 242.693 400.043 242.276 400.691 241.912C401.346 241.54 402.232 241.354 403.348 241.354C404.792 241.354 406.065 241.715 407.167 242.436C408.269 243.157 409.128 244.18 409.746 245.504C410.364 246.828 410.673 248.39 410.673 250.19C410.673 252.004 410.364 253.577 409.746 254.909C409.128 256.233 408.272 257.259 407.178 257.988C406.084 258.709 404.822 259.07 403.393 259.07C402.291 259.07 401.409 258.888 400.747 258.523C400.084 258.151 399.574 257.731 399.217 257.263C398.86 256.787 398.584 256.393 398.391 256.08H398.078V258.713H395.532ZM398.123 250.145C398.123 251.439 398.313 252.581 398.692 253.57C399.072 254.552 399.626 255.322 400.356 255.879C401.085 256.43 401.979 256.705 403.036 256.705C404.137 256.705 405.057 256.415 405.794 255.835C406.538 255.247 407.096 254.459 407.468 253.47C407.848 252.473 408.038 251.365 408.038 250.145C408.038 248.94 407.852 247.854 407.48 246.887C407.115 245.913 406.56 245.143 405.816 244.578C405.079 244.005 404.152 243.719 403.036 243.719C401.964 243.719 401.063 243.99 400.334 244.533C399.604 245.069 399.053 245.82 398.681 246.787C398.309 247.746 398.123 248.866 398.123 250.145Z" fill="white"/>
<path d="M425.512 251.707V241.577H428.147V258.713H425.512V255.812H425.334C424.932 256.683 424.306 257.423 423.458 258.032C422.609 258.635 421.537 258.936 420.242 258.936C419.17 258.936 418.217 258.702 417.384 258.233C416.55 257.757 415.895 257.043 415.418 256.091C414.942 255.132 414.704 253.923 414.704 252.465V241.577H417.339V252.287C417.339 253.537 417.689 254.533 418.389 255.277C419.096 256.021 419.996 256.393 421.091 256.393C421.746 256.393 422.412 256.225 423.089 255.89C423.774 255.556 424.347 255.043 424.809 254.351C425.278 253.659 425.512 252.778 425.512 251.707Z" fill="white"/>
<path d="M439.896 265.496C438.624 265.496 437.529 265.332 436.614 265.005C435.698 264.685 434.935 264.261 434.325 263.733C433.722 263.213 433.242 262.655 432.884 262.06L434.984 260.587C435.222 260.9 435.523 261.257 435.888 261.658C436.253 262.067 436.751 262.421 437.384 262.718C438.024 263.023 438.862 263.176 439.896 263.176C441.281 263.176 442.424 262.841 443.324 262.171C444.225 261.502 444.675 260.453 444.675 259.025V255.545H444.452C444.258 255.857 443.983 256.244 443.626 256.705C443.276 257.159 442.77 257.564 442.107 257.921C441.452 258.27 440.566 258.445 439.45 258.445C438.065 258.445 436.822 258.118 435.72 257.464C434.626 256.809 433.759 255.857 433.119 254.608C432.486 253.358 432.17 251.841 432.17 250.056C432.17 248.3 432.479 246.772 433.097 245.471C433.714 244.161 434.574 243.15 435.676 242.436C436.777 241.715 438.05 241.354 439.494 241.354C440.611 241.354 441.497 241.54 442.152 241.912C442.814 242.276 443.321 242.693 443.67 243.161C444.028 243.622 444.303 244.002 444.497 244.299H444.765V241.577H447.31V259.204C447.31 260.677 446.975 261.874 446.306 262.796C445.643 263.726 444.75 264.406 443.626 264.838C442.509 265.277 441.266 265.496 439.896 265.496ZM439.807 256.08C440.864 256.08 441.757 255.838 442.487 255.355C443.216 254.872 443.771 254.176 444.151 253.269C444.53 252.361 444.72 251.275 444.72 250.011C444.72 248.776 444.534 247.687 444.162 246.742C443.79 245.798 443.239 245.058 442.509 244.522C441.78 243.987 440.879 243.719 439.807 243.719C438.691 243.719 437.76 244.002 437.016 244.567C436.279 245.132 435.724 245.891 435.352 246.843C434.987 247.795 434.805 248.851 434.805 250.011C434.805 251.201 434.991 252.254 435.363 253.168C435.743 254.076 436.301 254.79 437.038 255.31C437.782 255.824 438.705 256.08 439.807 256.08Z" fill="white"/>
<path d="M454.055 258.892C453.504 258.892 453.031 258.694 452.636 258.3C452.242 257.906 452.045 257.434 452.045 256.883C452.045 256.333 452.242 255.861 452.636 255.467C453.031 255.072 453.504 254.875 454.055 254.875C454.605 254.875 455.078 255.072 455.473 255.467C455.867 255.861 456.064 256.333 456.064 256.883C456.064 257.248 455.971 257.583 455.785 257.887C455.607 258.192 455.365 258.438 455.059 258.624C454.762 258.802 454.427 258.892 454.055 258.892Z" fill="white"/>
<path d="M468.252 241.577V243.808H459.364V241.577H468.252ZM461.954 237.471H464.589V253.804C464.589 254.548 464.697 255.106 464.913 255.478C465.137 255.842 465.419 256.088 465.762 256.214C466.112 256.333 466.48 256.393 466.867 256.393C467.158 256.393 467.396 256.378 467.582 256.348C467.768 256.311 467.917 256.281 468.028 256.259L468.564 258.624C468.386 258.691 468.136 258.758 467.816 258.825C467.496 258.899 467.09 258.936 466.599 258.936C465.855 258.936 465.125 258.776 464.411 258.456C463.704 258.137 463.116 257.649 462.647 256.995C462.185 256.34 461.954 255.515 461.954 254.518V237.471Z" fill="white"/>
<path d="M472.216 258.713V241.577H474.851V258.713H472.216ZM473.555 238.721C473.042 238.721 472.599 238.546 472.227 238.197C471.862 237.847 471.68 237.427 471.68 236.936C471.68 236.445 471.862 236.025 472.227 235.675C472.599 235.326 473.042 235.151 473.555 235.151C474.069 235.151 474.508 235.326 474.873 235.675C475.245 236.025 475.431 236.445 475.431 236.936C475.431 237.427 475.245 237.847 474.873 238.197C474.508 238.546 474.069 238.721 473.555 238.721Z" fill="white"/>
<path d="M479.677 265.139V241.577H482.223V244.299H482.535C482.729 244.002 482.997 243.622 483.339 243.161C483.689 242.693 484.188 242.276 484.836 241.912C485.491 241.54 486.376 241.354 487.493 241.354C488.937 241.354 490.21 241.715 491.312 242.436C492.413 243.157 493.273 244.18 493.891 245.504C494.509 246.828 494.818 248.39 494.818 250.19C494.818 252.004 494.509 253.577 493.891 254.909C493.273 256.233 492.417 257.259 491.323 257.988C490.229 258.709 488.967 259.07 487.538 259.07C486.436 259.07 485.554 258.888 484.891 258.523C484.229 258.151 483.719 257.731 483.362 257.263C483.004 256.787 482.729 256.393 482.535 256.08H482.312V265.139H479.677ZM482.267 250.145C482.267 251.439 482.457 252.581 482.837 253.57C483.217 254.552 483.771 255.322 484.501 255.879C485.23 256.43 486.123 256.705 487.18 256.705C488.282 256.705 489.201 256.415 489.938 255.835C490.683 255.247 491.241 254.459 491.613 253.47C491.993 252.473 492.183 251.365 492.183 250.145C492.183 248.94 491.997 247.854 491.624 246.887C491.26 245.913 490.705 245.143 489.961 244.578C489.224 244.005 488.297 243.719 487.18 243.719C486.108 243.719 485.208 243.99 484.478 244.533C483.749 245.069 483.198 245.82 482.826 246.787C482.454 247.746 482.267 248.866 482.267 250.145Z" fill="white"/>
<path d="M510.986 245.415L508.618 246.084C508.47 245.69 508.25 245.307 507.96 244.935C507.677 244.556 507.29 244.243 506.799 243.998C506.307 243.752 505.678 243.63 504.912 243.63C503.862 243.63 502.987 243.871 502.288 244.355C501.595 244.831 501.249 245.437 501.249 246.173C501.249 246.828 501.487 247.345 501.964 247.724C502.44 248.103 503.185 248.419 504.197 248.672L506.743 249.297C508.276 249.669 509.419 250.238 510.171 251.004C510.922 251.763 511.298 252.741 511.298 253.938C511.298 254.92 511.015 255.798 510.45 256.571C509.891 257.345 509.11 257.954 508.105 258.401C507.1 258.847 505.931 259.07 504.599 259.07C502.85 259.07 501.402 258.691 500.255 257.932C499.109 257.173 498.383 256.065 498.078 254.608L500.579 253.983C500.817 254.905 501.268 255.597 501.93 256.058C502.6 256.519 503.475 256.75 504.554 256.75C505.782 256.75 506.758 256.489 507.48 255.969C508.209 255.441 508.574 254.808 508.574 254.072C508.574 253.477 508.365 252.979 507.949 252.577C507.532 252.168 506.892 251.863 506.028 251.662L503.17 250.993C501.599 250.621 500.445 250.045 499.708 249.264C498.979 248.475 498.614 247.49 498.614 246.307C498.614 245.34 498.886 244.485 499.429 243.741C499.98 242.998 500.728 242.414 501.673 241.99C502.626 241.566 503.706 241.354 504.912 241.354C506.609 241.354 507.941 241.726 508.909 242.469C509.884 243.213 510.576 244.195 510.986 245.415Z" fill="white"/>
</g>
<defs>
<linearGradient id="paint0_linear_31_7" x1="203.5" y1="228" x2="815" y2="666.5" gradientUnits="userSpaceOnUse">
<stop stop-color="#5C03BC"/>
<stop offset="1" stop-color="#091970"/>
</linearGradient>
<clipPath id="clip0_31_7">
<rect width="800" height="420" fill="white"/>
</clipPath>
</defs>
</svg>
